<?xml version="1.0" encoding="UTF-8"?>
<svg version="1.1" xmlns="http://www.w3.org/2000/svg" width="1700" height="600">
<path d="M0 0 C0.17414203 9.29006984 -0.33287167 18.37826366 -1.2421875 27.62109375 C-1.37225522 28.97816289 -1.50197835 30.33526509 -1.63137817 31.69239807 C-1.90137696 34.5088052 -2.17586007 37.32472826 -2.45361328 40.14038086 C-2.80786925 43.73587418 -3.15002793 47.33240287 -3.48882866 50.92938137 C-3.75318228 53.7206406 -4.02418807 56.51122389 -4.29715347 59.30165291 C-4.48820925 61.2676567 -4.67347253 63.23422066 -4.85861206 65.20079041 C-4.97858551 66.39966385 -5.09855896 67.59853729 -5.22216797 68.83374023 C-5.3243161 69.88262924 -5.42646423 70.93151825 -5.53170776 72.01219177 C-6.02695975 75.1720092 -6.90796698 77.99886207 -8 81 C-13.63167982 77.36536976 -18.92971129 73.54857703 -24.0546875 69.22265625 C-25.01761719 68.61744141 -25.01761719 68.61744141 -26 68 C-29.35927769 69.11975923 -29.80914756 69.73602602 -31.79296875 72.515625 C-32.33244141 73.26134766 -32.87191406 74.00707031 -33.42773438 74.77539062 C-34.00845703 75.59201172 -34.58917969 76.40863281 -35.1875 77.25 C-36.45018186 78.99597965 -37.71456805 80.74072772 -38.98046875 82.484375 C-39.63966309 83.39380859 -40.29885742 84.30324219 -40.97802734 85.24023438 C-44.25311817 89.71036558 -47.62663255 94.10384099 -51 98.5 C-56.79354824 106.06622716 -62.48803644 113.69732337 -68.12182617 121.38305664 C-72.22969211 126.97877375 -76.42146718 132.49947421 -80.67578125 137.984375 C-83.89730968 142.16424045 -87.04370759 146.39821291 -90.1875 150.63671875 C-93.47206272 154.91939213 -93.47206272 154.91939213 -96.328125 155.35546875 C-99.81494476 154.89157899 -101.12615107 153.63970359 -103.75 151.3125 C-108.49111799 147.247773 -113.33343563 143.39471959 -118.3125 139.625 C-123.70625658 135.52737114 -129.06398827 131.39177352 -134.375 127.1875 C-136.57898854 125.45272547 -138.7872446 123.72357744 -141 122 C-141.52916016 121.58782227 -142.05832031 121.17564453 -142.60351562 120.75097656 C-144.10178735 119.59322114 -145.61311137 118.45241603 -147.125 117.3125 C-147.97320312 116.66925781 -148.82140625 116.02601563 -149.6953125 115.36328125 C-152.1275114 113.66058504 -152.1275114 113.66058504 -156 114 C-157.70318767 115.36154485 -157.70318767 115.36154485 -159.1875 117.3125 C-159.7959375 118.04855469 -160.404375 118.78460938 -161.03125 119.54296875 C-161.6809375 120.35378906 -162.330625 121.16460937 -163 122 C-164.39506804 123.70895835 -165.79094523 125.41725639 -167.1875 127.125 C-167.94675781 128.05957031 -168.70601562 128.99414062 -169.48828125 129.95703125 C-172.23577501 133.28564344 -175.04982272 136.54996355 -177.875 139.8125 C-181.95070751 144.52471272 -185.87311593 149.32409527 -189.6875 154.25 C-193.53844223 159.22173885 -197.56035151 163.94283767 -201.8203125 168.57421875 C-204.13592892 171.15127574 -206.32205066 173.80582391 -208.5 176.5 C-209.99885816 178.33426698 -211.49887277 180.16758952 -213 182 C-213.78890625 182.97453125 -214.5778125 183.9490625 -215.390625 184.953125 C-216.55851562 186.33757812 -216.55851562 186.33757812 -217.75 187.75 C-218.44609375 188.59046875 -219.1421875 189.4309375 -219.859375 190.296875 C-222 192 -222 192 -224.30322266 191.80493164 C-227.38134101 190.88617768 -229.60074241 189.58218858 -232.2890625 187.82421875 C-233.81213013 186.83699829 -233.81213013 186.83699829 -235.3659668 185.82983398 C-236.44144775 185.12286377 -237.51692871 184.41589355 -238.625 183.6875 C-240.30776853 182.60014815 -241.99053959 181.51280005 -243.6736908 180.42604065 C-248.35837218 177.39589098 -253.01665073 174.32727691 -257.66015625 171.234375 C-258.51464355 170.67403564 -259.36913086 170.11369629 -260.24951172 169.53637695 C-261.83764914 168.49484762 -263.41670773 167.43929846 -264.98486328 166.36791992 C-266.05003174 165.67339722 -266.05003174 165.67339722 -267.13671875 164.96484375 C-268.04490356 164.35564087 -268.04490356 164.35564087 -268.97143555 163.73413086 C-273.40692388 162.1289421 -277.31576803 164.04415336 -281.37451172 165.91430664 C-283.0635148 166.73821905 -284.74835891 167.57069379 -286.4296875 168.41015625 C-287.7916777 169.07874916 -287.7916777 169.07874916 -289.18118286 169.760849 C-292.08277942 171.18744426 -294.97888284 172.62481917 -297.875 174.0625 C-299.78350691 175.00265837 -301.69235812 175.94211817 -303.6015625 176.88085938 C-309.07393187 179.57475922 -314.53778104 182.28559284 -320 185 C-320.75763641 185.37558044 -321.51527283 185.75116089 -322.29586792 186.13812256 C-329.35518532 189.63788715 -336.388672 193.17769219 -343.36328125 196.84375 C-344.51634766 197.44960938 -345.66941406 198.05546875 -346.85742188 198.6796875 C-348.61160495 199.60388118 -350.36570456 200.52824715 -352.11694336 201.45800781 C-353.86280627 202.38377615 -355.61297801 203.30140445 -357.36328125 204.21875 C-358.37688721 204.75435547 -359.39049316 205.28996094 -360.43481445 205.84179688 C-363 207 -363 207 -366 207 C-364.49542094 203.23434961 -362.36583433 201.45704323 -359.1875 199 C-354.72474463 195.45087959 -350.47950114 191.76630622 -346.3125 187.875 C-345.20315695 186.84111155 -344.09378285 185.80725642 -342.984375 184.7734375 C-342.46681641 184.29100586 -341.94925781 183.80857422 -341.41601562 183.31152344 C-337.31094624 179.50937987 -333.04618115 175.89120104 -328.7890625 172.26171875 C-327.58839157 171.23715504 -326.38787535 170.21240999 -325.1875 169.1875 C-324.58204346 168.6709082 -323.97658691 168.15431641 -323.3527832 167.62207031 C-319.5871264 164.39681069 -315.89774658 161.10799649 -312.25 157.75 C-308.14796224 153.98380159 -303.90548422 150.49609109 -299.52734375 147.05859375 C-296.77767424 144.81890931 -294.17153289 142.46429056 -291.5625 140.0625 C-287.80479924 136.61927349 -284.01700918 133.22872924 -280.125 129.9375 C-279.26132812 129.20402344 -278.39765625 128.47054687 -277.5078125 127.71484375 C-274.80573818 125.86716364 -273.23135703 125.31940126 -270 125 C-267.94213867 125.8293457 -267.94213867 125.8293457 -265.91796875 127.17578125 C-264.77811523 127.91658936 -264.77811523 127.91658936 -263.61523438 128.67236328 C-262.81408203 129.2136084 -262.01292969 129.75485352 -261.1875 130.3125 C-259.49385043 131.42112438 -257.79983339 132.52918756 -256.10546875 133.63671875 C-255.2551709 134.1992334 -254.40487305 134.76174805 -253.52880859 135.34130859 C-249.72665066 137.83521292 -245.86539169 140.2307682 -242 142.625 C-238.64162422 144.71455637 -235.29151964 146.80565357 -232 149 C-228.93684266 148.84514844 -227.47487383 148.45893847 -225.25390625 146.3125 C-224.69574219 145.549375 -224.13757813 144.78625 -223.5625 144 C-222.53769531 142.64841797 -222.53769531 142.64841797 -221.4921875 141.26953125 C-221.10514648 140.75600098 -220.71810547 140.2424707 -220.31933594 139.71337891 C-217.6934787 136.30326305 -214.93006442 133.00386599 -212.1875 129.6875 C-211.58341309 128.95450684 -210.97932617 128.22151367 -210.35693359 127.46630859 C-206.22124565 122.45459368 -202.04219958 117.48180568 -197.83276367 112.53198242 C-195.01773815 109.21752528 -192.24543298 105.87226635 -189.5 102.5 C-183.92216043 95.6517628 -178.198016 88.92874699 -172.47119141 82.20507812 C-171.45008527 81.00620596 -170.42956636 79.80683337 -169.40966797 78.60693359 C-168.45045392 77.47846519 -167.48990669 76.35112824 -166.52783203 75.22509766 C-164.53441128 72.87880659 -162.71070912 70.56606368 -161 68 C-158.74609375 67.51171875 -158.74609375 67.51171875 -156 68 C-153.83790012 69.53755933 -151.99993508 71.03026229 -150.0625 72.8125 C-148.90948738 73.83032156 -147.75447306 74.84587921 -146.59765625 75.859375 C-146.00484863 76.38208984 -145.41204102 76.90480469 -144.80126953 77.44335938 C-141.94302878 79.91342484 -138.98010943 82.24204913 -136 84.5625 C-135.41822998 85.0164917 -134.83645996 85.4704834 -134.23706055 85.93823242 C-132.49373309 87.29522827 -130.74737876 88.64822621 -129 90 C-128.1642041 90.64799561 -128.1642041 90.64799561 -127.31152344 91.30908203 C-124.60981526 93.40239028 -121.90225773 95.48734998 -119.18359375 97.55859375 C-116.9873577 99.23304586 -114.81823378 100.9368447 -112.66015625 102.66015625 C-111.58605081 103.50274864 -110.51183619 104.34520186 -109.4375 105.1875 C-108.48746094 105.94417969 -107.53742188 106.70085937 -106.55859375 107.48046875 C-104.20028117 109.15466266 -104.20028117 109.15466266 -101.94140625 109.0859375 C-98.99009934 107.43510587 -97.49867038 105.1523606 -95.5 102.4375 C-95.06913086 101.85959717 -94.63826172 101.28169434 -94.19433594 100.6862793 C-93.2664809 99.44024095 -92.34312476 98.19084242 -91.42382812 96.93847656 C-89.05481556 93.71317482 -86.65038897 90.51447654 -84.25 87.3125 C-83.50786255 86.31899536 -83.50786255 86.31899536 -82.75073242 85.30541992 C-78.83258018 80.07187465 -74.83554344 74.90320317 -70.8125 69.75 C-64.68716237 61.89937863 -64.68716237 61.89937863 -58.625 54 C-57.91601562 53.071875 -57.20703125 52.14375 -56.4765625 51.1875 C-54.81350905 49.16358429 -54.81350905 49.16358429 -55 47 C-57.20318285 45.48251682 -59.40126035 44.0692932 -61.6875 42.6875 C-66.38302876 39.84890537 -70.26160996 37.03860492 -74 33 C-63.98826331 27.84495015 -53.81551648 23.15023174 -43.52832031 18.57568359 C-39.98706442 16.99422321 -36.45069463 15.40228194 -32.91534424 13.80767822 C-29.44546253 12.24298416 -25.97414525 10.68148973 -22.50268555 9.12030029 C-20.7513413 8.33196757 -19.00052643 7.54245773 -17.25024414 6.75177002 C-14.76995371 5.63178481 -12.28758001 4.51654609 -9.8046875 3.40234375 C-9.04723236 3.05903519 -8.28977722 2.71572662 -7.5093689 2.36201477 C-2.22793669 0 -2.22793669 0 0 0 Z " fill="#1EA13F" transform="translate(622,334)"/>
<path d="M0 0 C-12.37431422 29.08935646 -70.28742599 52.67398472 -97.75512695 63.82958984 C-101.47787733 65.29303596 -105.23028825 66.66276586 -109 68 C-110.21381348 68.4345752 -110.21381348 68.4345752 -111.45214844 68.87792969 C-122.60929645 72.81145707 -133.86099883 75.81676181 -145.4375 78.25 C-146.54198486 78.48404541 -147.64646973 78.71809082 -148.78442383 78.95922852 C-167.25958338 82.66275292 -185.56540677 84.50721566 -204.40673828 84.39111328 C-207.4994716 84.37500275 -210.59089888 84.39109872 -213.68359375 84.41015625 C-231.91240645 84.43034429 -249.97980711 82.7469707 -267.6875 78.25 C-268.7180249 77.99468506 -269.7485498 77.73937012 -270.81030273 77.47631836 C-280.77052304 74.93346313 -290.4274434 71.7350717 -300 68 C-300.69883301 67.73106934 -301.39766602 67.46213867 -302.11767578 67.18505859 C-326.34903883 57.71379907 -351.09776481 40.94284893 -368 21 C-368 20.34 -368 19.68 -368 19 C-364.75683424 20.2011725 -361.67717423 21.6307741 -358.5859375 23.171875 C-321.26390503 41.72106222 -279.25011701 47.57161175 -238 41 C-236.95295898 40.83927002 -236.95295898 40.83927002 -235.88476562 40.67529297 C-230.89946154 39.8976127 -225.94622652 38.99554772 -221 38 C-220.34805664 37.86899902 -219.69611328 37.73799805 -219.02441406 37.60302734 C-199.9481511 33.660981 -181.43044292 27.31424493 -163.125 20.75 C-110.81639795 2.01125778 -110.81639795 2.01125778 -85 -3 C-84.17886719 -3.17354004 -83.35773438 -3.34708008 -82.51171875 -3.52587891 C-55.67728622 -9.14976184 -26.2578568 -7.38993575 0 0 Z " fill="#0D75E5" transform="translate(614,536)"/>
<path d="M0 0 C1.20099162 0.00081715 1.20099162 0.00081715 2.42624569 0.00165081 C3.34469265 -0.00254368 4.26313961 -0.00673817 5.2094183 -0.01105976 C6.72512165 -0.0026305 6.72512165 -0.0026305 8.27144527 0.00596905 C9.8641827 0.00312153 9.8641827 0.00312153 11.48909664 0.00021648 C15.01224213 -0.00349976 18.53518323 0.00722437 22.05831051 0.01842022 C24.49686312 0.01961156 26.93541619 0.02006528 29.37396908 0.01980877 C34.48940044 0.02137506 39.60476195 0.0296764 44.72017574 0.04307842 C51.29360014 0.06007743 57.86694774 0.0638926 64.44039154 0.06313324 C69.47679032 0.0634045 74.51317215 0.06887852 79.54956532 0.07613468 C81.97419195 0.07932785 84.39882051 0.08129026 86.82344913 0.08202839 C90.20458567 0.08418461 93.58563897 0.09291295 96.96675777 0.1036253 C98.48549747 0.10294552 98.48549747 0.10294552 100.03491879 0.10225201 C100.95054592 0.10651699 101.86617306 0.11078197 102.80954647 0.1151762 C104.00997255 0.11768997 104.00997255 0.11768997 105.23464966 0.12025452 C107.05440426 0.24888897 107.05440426 0.24888897 108.05440426 1.24888897 C108.05440426 11.14888897 108.05440426 21.04888897 108.05440426 31.24888897 C83.63440426 31.57888897 59.21440426 31.90888897 34.05440426 32.24888897 C34.05440426 44.78888897 34.05440426 57.32888897 34.05440426 70.24888897 C38.5184277 70.23728741 42.98245113 70.22568584 47.58174801 70.21373272 C51.13176858 70.20730587 54.68178751 70.20188161 58.23181057 70.19713879 C61.9844545 70.19184889 65.73707601 70.18477506 69.48970699 70.17344952 C73.10122113 70.16261756 76.71271347 70.15661148 80.32424259 70.15401173 C81.70500755 70.15215803 83.08577126 70.14853848 84.46652699 70.14315891 C86.39416378 70.1359445 88.32182233 70.13548088 90.24947262 70.13536358 C91.34867535 70.13314297 92.44787807 70.13092236 93.58038998 70.12863445 C96.05440426 70.24888897 96.05440426 70.24888897 97.05440426 71.24888897 C97.30822796 75.5344569 97.23963326 79.8316975 97.24190426 84.12388897 C97.25415035 85.33431866 97.26639645 86.54474834 97.27901363 87.79185772 C97.28094723 88.95072491 97.28288082 90.10959209 97.28487301 91.30357647 C97.2889819 92.37075909 97.29309078 93.4379417 97.29732418 94.53746319 C97.05440426 97.24888897 97.05440426 97.24888897 95.05440426 100.24888897 C92.49809933 100.60965252 92.49809933 100.60965252 89.2277441 100.58946514 C88.0066293 100.58923855 86.78551449 100.58901196 85.5273962 100.5887785 C84.19004103 100.57345749 82.85268956 100.55780948 81.51534176 100.54185772 C80.15056988 100.53626319 78.78579198 100.53199241 77.42101192 100.52899456 C73.82710319 100.51753437 70.23355759 100.48805768 66.63979244 100.45488262 C62.97335976 100.42420668 59.30686672 100.4103303 55.64034176 100.39537334 C48.44470844 100.36477967 41.25007257 100.30606467 34.05440426 100.24888897 C34.05440426 113.44888897 34.05440426 126.64888897 34.05440426 140.24888897 C39.13331051 140.22568584 44.21221676 140.20248272 49.44502926 140.17857647 C52.66248229 140.16835749 55.8799153 140.15872956 59.09737301 140.15123272 C64.20434887 140.13927683 69.31125302 140.12513229 74.41817379 140.09801006 C78.53544812 140.07628055 82.65264555 140.0643201 86.7699728 140.05913448 C88.34085202 140.05543892 89.91172703 140.04822245 91.48257351 140.03742886 C93.68271642 140.02291239 95.88254148 140.02091108 98.08272457 140.02183819 C99.3351495 140.01739697 100.58757442 140.01295574 101.87795162 140.00837994 C105.05440426 140.24888897 105.05440426 140.24888897 109.05440426 142.24888897 C109.05440426 151.81888897 109.05440426 161.38888897 109.05440426 171.24888897 C106.69120689 172.43048765 105.28006953 172.37464291 102.64459896 172.37587261 C101.71773785 172.37869244 100.79087673 172.38151226 99.83592892 172.38441753 C98.81610928 172.3823933 97.79628963 172.38036907 96.74556637 172.3782835 C95.13819859 172.38091198 95.13819859 172.38091198 93.49835873 172.38359356 C89.94280553 172.38800862 86.38730174 172.38507549 82.83174801 172.38170147 C80.37077481 172.38237456 77.90980167 172.38334462 75.4488287 172.38460064 C70.2863416 172.3860771 65.12387178 172.38392451 59.96138668 172.37926006 C53.32743329 172.37355983 46.69352032 172.37684398 40.05956841 172.38283253 C34.97685088 172.38643697 29.89414302 172.38530014 24.81142521 172.38270473 C22.36446853 172.3820353 19.91751098 172.38286447 17.47055531 172.38518429 C14.05829557 172.38770922 10.64610237 172.3838726 7.23384762 172.3782835 C5.70108181 172.38131985 5.70108181 172.38131985 4.13735104 172.38441753 C2.7512891 172.3801878 2.7512891 172.3801878 1.33722591 172.37587261 C0.52956752 172.37549559 -0.27809088 172.37511856 -1.11022377 172.37473011 C-2.94559574 172.24888897 -2.94559574 172.24888897 -3.94559574 171.24888897 C-4.04695816 169.07656578 -4.07637594 166.90088391 -4.07930851 164.72619915 C-4.08157407 164.03663551 -4.08383962 163.34707187 -4.08617383 162.63661236 C-4.09254143 160.30886822 -4.09168271 157.9811819 -4.09085941 155.65342999 C-4.09384919 153.99152329 -4.09725129 152.32961729 -4.10103703 150.66771221 C-4.10989968 146.14091831 -4.11221608 141.61414329 -4.11285281 137.08734155 C-4.11380001 133.31474956 -4.11747611 129.54216201 -4.12102491 125.76957172 C-4.12917805 116.87261986 -4.13160836 107.97567812 -4.13089848 99.07872295 C-4.13029743 89.88617087 -4.14085269 80.69367742 -4.15664214 71.50114018 C-4.16969623 63.62174564 -4.17508327 55.74237032 -4.17444307 47.86296505 C-4.17418745 43.15125403 -4.17707335 38.43959508 -4.18762112 33.72789478 C-4.19726637 29.29811524 -4.197406 24.86843794 -4.19010448 20.4386549 C-4.18905418 18.80919719 -4.19144776 17.17973323 -4.19746494 15.55028629 C-4.20512527 13.33292279 -4.20058015 11.11591762 -4.1928339 8.89856243 C-4.19337867 7.65544072 -4.19392344 6.41231901 -4.19448471 5.13152695 C-3.91129321 1.85159627 -3.44136368 0.44023403 0 0 Z " fill="#2F4565" transform="translate(675.945595741272,388.7511110305786)"/>
<path d="M0 0 C0.66 0 1.32 0 2 0 C2.9233466 10.54576335 3.1483171 20.98527506 3.1328125 31.5625 C3.13348815 33.20963556 3.13446035 34.85677103 3.13571167 36.50390625 C3.13717304 39.92595384 3.13508268 43.34797504 3.13037109 46.77001953 C3.12463834 51.14544236 3.12798496 55.52080431 3.13394356 59.89622498 C3.13756075 63.28489642 3.13640587 66.67355346 3.13381577 70.06222534 C3.13315158 71.67609667 3.13395705 73.28996934 3.13629532 74.90383911 C3.13884492 77.15467803 3.13495045 79.4054184 3.12939453 81.65625 C3.12820114 83.57147461 3.12820114 83.57147461 3.12698364 85.52539062 C3.00820606 88.77546041 2.61737629 91.81089277 2 95 C0.11667969 94.58427734 0.11667969 94.58427734 -1.8046875 94.16015625 C-3.49472882 93.79398063 -5.1848366 93.42811169 -6.875 93.0625 C-7.69742187 92.88009766 -8.51984375 92.69769531 -9.3671875 92.50976562 C-34.07852564 87.20068907 -60.39408925 89.22382231 -85 94 C-86.01707031 94.19303711 -87.03414062 94.38607422 -88.08203125 94.58496094 C-111.3090115 99.12450875 -133.75500912 106.92866375 -156.17503357 114.37971497 C-183.26560076 123.38281457 -210.45991466 132.10009853 -239 135 C-240.80017578 135.19335938 -240.80017578 135.19335938 -242.63671875 135.390625 C-250.7504316 136.13446357 -258.85920295 136.18430514 -267 136 C-267.69222656 135.98743164 -268.38445312 135.97486328 -269.09765625 135.96191406 C-290.52191534 135.4856034 -310.30798865 130.29381184 -330 122 C-328.7373974 118.21219219 -327.72233313 118.03295642 -324.2421875 116.25 C-323.23631592 115.72986328 -322.23044434 115.20972656 -321.1940918 114.67382812 C-320.0987915 114.12146484 -319.00349121 113.56910156 -317.875 113 C-316.74425049 112.42185547 -315.61350098 111.84371094 -314.44848633 111.24804688 C-303.39494646 105.62757673 -292.22939514 100.2583468 -281 95 C-279.78962808 94.43100858 -278.57934545 93.86182719 -277.36914062 93.29248047 C-274.18601743 91.79558448 -271.0007623 90.30331433 -267.81387329 88.81445312 C-266.57630538 88.23605593 -265.33913364 87.65681022 -264.10238647 87.07666016 C-262.37061979 86.26517237 -260.63651908 85.45867135 -258.90234375 84.65234375 C-257.90710693 84.18820068 -256.91187012 83.72405762 -255.88647461 83.24584961 C-252.94235322 81.97511871 -250.09875269 80.83285887 -247 80 C-244.203125 81.28125 -244.203125 81.28125 -241.25 83.5 C-240.7048877 83.9014624 -240.15977539 84.3029248 -239.59814453 84.71655273 C-237.71192833 86.11958609 -235.85523995 87.55627438 -234 89 C-233.28102539 89.55445801 -232.56205078 90.10891602 -231.82128906 90.68017578 C-227.95202369 93.6661493 -224.09586125 96.66862962 -220.24609375 99.6796875 C-219.15337158 100.53385254 -219.15337158 100.53385254 -218.03857422 101.40527344 C-216.78125122 102.38884635 -215.52486381 103.37361824 -214.27001953 104.36035156 C-205.05576594 111.81328597 -205.05576594 111.81328597 -193.76953125 113.7578125 C-191.35036051 113.2224806 -191.35036051 113.2224806 -188 112 C-187.01 111.67 -186.02 111.34 -185 111 C-184.31561639 109.67567327 -183.65269373 108.34022876 -183 107 C-181.52137145 105.27539921 -179.99436237 103.59181854 -178.4375 101.9375 C-174.23502412 97.41251559 -170.28543864 92.74189157 -166.40234375 87.9375 C-162.20935841 82.81046752 -157.86722167 77.8111143 -153.54394531 72.79394531 C-151.53859231 70.46387987 -149.54031351 68.12780842 -147.54223633 65.79150391 C-145.55859845 63.4737142 -143.57049341 61.15977391 -141.58251953 58.84570312 C-139.8832809 56.86386973 -138.18984927 54.87714563 -136.49609375 52.890625 C-135.33092916 51.53107858 -134.1655692 50.17169956 -133 48.8125 C-132.45996338 48.17642822 -131.91992676 47.54035645 -131.36352539 46.88500977 C-130.85168701 46.29002686 -130.33984863 45.69504395 -129.8125 45.08203125 C-129.36519531 44.55843018 -128.91789063 44.0348291 -128.45703125 43.49536133 C-126.77719027 41.77132882 -124.95388355 40.40030065 -123 39 C-122.54786133 39.37697021 -122.09572266 39.75394043 -121.62988281 40.14233398 C-113.4794853 46.92641422 -105.31674282 53.61981702 -96.77734375 59.91015625 C-93.846689 62.1153606 -91.01464902 64.41386194 -88.1875 66.75 C-78.84268114 74.8635408 -78.84268114 74.8635408 -67.04296875 77.26171875 C-61.64630037 76.57036735 -58.65940126 72.74542662 -55.4375 68.75 C-54.42042969 67.43128906 -54.42042969 67.43128906 -53.3828125 66.0859375 C-50.58655361 62.46455303 -47.70490346 58.91968351 -44.8125 55.375 C-43.68861753 53.99363972 -42.56492236 52.61212702 -41.44140625 51.23046875 C-40.5908667 50.18511963 -40.5908667 50.18511963 -39.72314453 49.11865234 C-38.01100811 47.01353476 -36.30018031 44.90736134 -34.58984375 42.80078125 C-29.79917255 36.90050094 -25.00657206 31.00211875 -20.1875 25.125 C-17.41822195 21.74425727 -14.66752184 18.35002731 -11.9375 14.9375 C-11.29425781 14.13441406 -10.65101563 13.33132813 -9.98828125 12.50390625 C-8.57873368 10.72881786 -7.18150093 8.9439189 -5.79296875 7.15234375 C-5.07753906 6.23582031 -4.36210938 5.31929688 -3.625 4.375 C-2.65433594 3.11816406 -2.65433594 3.11816406 -1.6640625 1.8359375 C-0.84035156 0.92714844 -0.84035156 0.92714844 0 0 Z " fill="#0A64D3" transform="translate(595,430)"/>
<path d="M0 0 C1.29671631 0.00132935 1.29671631 0.00132935 2.61962891 0.00268555 C13.06240223 0.1925016 22.0311592 2.6761521 31.375 7.375 C32.035 7.375 32.695 7.375 33.375 7.375 C34.035 6.055 34.695 4.735 35.375 3.375 C44.285 3.375 53.195 3.375 62.375 3.375 C62.39811684 25.13182316 62.41597812 46.88864338 62.42681217 68.64547634 C62.43197559 78.74680943 62.43901915 88.84813477 62.45043945 98.94946289 C62.4603849 107.75044464 62.46685309 116.55142078 62.46908849 125.35240799 C62.47039584 130.01546267 62.47348318 134.67850128 62.48073006 139.34155083 C62.48748809 143.72532366 62.48961741 148.10907371 62.48810768 152.49285126 C62.48838411 154.10660234 62.49039052 155.72035413 62.49420547 157.33410072 C62.49913934 159.5276889 62.49799944 161.7211897 62.49525452 163.91477966 C62.49617631 165.1453733 62.4970981 166.37596693 62.49804783 167.64385128 C62.375 170.375 62.375 170.375 61.375 171.375 C59.01101532 171.4757812 56.67688689 171.51473215 54.3125 171.5078125 C53.60601318 171.50876923 52.89952637 171.50972595 52.17163086 171.51071167 C50.67529207 171.51139333 49.17895033 171.50954005 47.68261719 171.50537109 C45.38469843 171.50002257 43.08697514 171.50531651 40.7890625 171.51171875 C39.33854123 171.51105797 37.88802009 171.5097768 36.4375 171.5078125 C35.4000061 171.51084885 35.4000061 171.51084885 34.34155273 171.51394653 C29.48995224 171.48995224 29.48995224 171.48995224 28.375 170.375 C28.25177242 168.59596643 28.19710981 166.81213797 28.16967773 165.02905273 C28.1397599 163.31739174 28.1397599 163.31739174 28.10923767 161.57115173 C28.09252518 160.3295076 28.07581268 159.08786346 28.05859375 157.80859375 C28.03781265 156.54483414 28.01703156 155.28107452 27.99562073 153.97901917 C27.94116286 150.61381367 27.8909572 147.24859827 27.84277344 143.88330078 C27.79260241 140.45144099 27.73689345 137.01967169 27.68164062 133.58789062 C27.57429809 126.85033239 27.47255675 120.11270664 27.375 113.375 C26.43978516 113.92349609 25.50457031 114.47199219 24.54101562 115.03710938 C23.28790438 115.76457096 22.03464102 116.49177056 20.78125 117.21875 C20.16797852 117.57936523 19.55470703 117.93998047 18.92285156 118.31152344 C5.48039774 126.07906271 -8.46524193 127.36993419 -23.45703125 123.48046875 C-37.44316772 118.5999797 -47.55397677 109.18460525 -54.625 96.375 C-63.29565049 77.1020098 -63.92262559 56.08527739 -56.8125 36.21875 C-51.25852188 22.91843399 -41.591531 11.94602456 -28.4140625 5.90234375 C-18.98350463 2.13231887 -10.16109635 -0.01898337 0 0 Z M-16.625 36.375 C-25.1704668 46.49004234 -26.65620578 57.42918695 -25.625 70.375 C-23.79707349 80.45508747 -18.84079677 87.37231454 -10.625 93.375 C-4.00953916 97.44164693 3.87311801 97.13447062 11.375 96.375 C14.99073482 95.46248077 18.14212738 94.22766428 21.375 92.375 C21.94904572 92.11537476 22.52309143 91.85574951 23.11453247 91.58825684 C25.32729897 90.38373384 26.7609541 89.32396111 28.375 87.375 C29.37281709 83.20408654 29.18955826 79.12290391 29.05859375 74.85546875 C29.04868912 73.64176102 29.03878448 72.42805328 29.02857971 71.17756653 C28.98942434 67.30464371 28.90158751 63.43456477 28.8125 59.5625 C28.77738821 56.93558783 28.745449 54.30863119 28.71679688 51.68164062 C28.63965774 45.24512501 28.52255201 38.81026565 28.375 32.375 C26.77045697 31.72168015 25.16476722 31.07117612 23.55859375 30.421875 C22.66454834 30.05932617 21.77050293 29.69677734 20.84936523 29.32324219 C8.24888261 24.49440405 -6.95276837 26.84837186 -16.625 36.375 Z " fill="#2A4161" transform="translate(852.625,438.625)"/>
<path d="M0 0 C11.74322757 9.71977913 18.64287682 23.14536525 21.2890625 38.0390625 C22.56485572 57.74233561 20.60856088 76.23494852 7.52978516 91.88476562 C-3.5597296 104.30248468 -18.38478098 111.15422068 -34.99169922 112.17993164 C-54.43565005 112.94700069 -72.64822557 109.845375 -88.0234375 96.9140625 C-101.52560972 83.83452829 -107.53031789 68.18160194 -107.9609375 49.4765625 C-107.55949272 32.18934647 -101.68516624 16.85521416 -89.9140625 4.140625 C-86.17837483 0.57714988 -82.09349891 -2.2519756 -77.7109375 -4.9609375 C-76.79441406 -5.54488281 -76.79441406 -5.54488281 -75.859375 -6.140625 C-52.80536557 -19.24180217 -20.76377081 -15.01932701 0 0 Z M-64.24609375 23.125 C-72.05230386 33.32511455 -72.64670267 45.65175528 -71.7109375 58.0390625 C-70.3684823 67.91005659 -66.77502643 73.78594618 -60.0234375 80.8515625 C-53.09886223 85.42439523 -45.60472888 86.76500685 -37.41796875 85.67578125 C-29.81294046 83.88700836 -24.04090599 80.53401524 -19.7109375 74.0390625 C-12.83559635 62.65253259 -12.035197 49.53237632 -14.8984375 36.6640625 C-17.46136044 27.72942835 -22.05633603 21.37363998 -29.7109375 16.0390625 C-41.50914225 10.82062579 -55.63880796 13.60635454 -64.24609375 23.125 Z " fill="#2D4363" transform="translate(1219.7109375,451.9609375)"/>
<path d="M0 0 C1.0374939 0.00303635 1.0374939 0.00303635 2.09594727 0.00613403 C2.80243408 0.00517731 3.5089209 0.00422058 4.23681641 0.00323486 C5.7331552 0.00255321 7.22949694 0.00440649 8.72583008 0.00857544 C11.02374884 0.01392396 13.32147213 0.00863003 15.61938477 0.00222778 C17.06990603 0.00288857 18.52042718 0.00416974 19.97094727 0.00613403 C20.66260986 0.0041098 21.35427246 0.00208557 22.06689453 0 C26.91849503 0.0239943 26.91849503 0.0239943 28.03344727 1.13894653 C28.14772573 3.46378522 28.19825844 5.76015104 28.20703125 8.08621216 C28.21371826 8.81317291 28.22040527 9.54013367 28.22729492 10.28912354 C28.24138151 11.87422485 28.25326396 13.45934688 28.26324272 15.04447937 C28.27963147 17.55907576 28.30287376 20.07352133 28.32814026 22.58804321 C28.39893622 29.74002558 28.45875767 36.89207331 28.51025391 44.04421997 C28.54221162 48.41563343 28.58354162 52.78688002 28.6304493 57.15815735 C28.64638488 58.81975774 28.65874503 60.48139665 28.66735649 62.14305115 C28.37157756 76.09261268 28.37157756 76.09261268 32.72094727 89.07644653 C37.13150182 93.01018438 41.64930779 93.33579057 47.34594727 93.01394653 C56.26235913 91.96207902 62.95167931 88.4502725 70.03344727 83.13894653 C70.69344727 83.13894653 71.35344727 83.13894653 72.03344727 83.13894653 C72.03122665 82.12861359 72.02900604 81.11828064 72.02671814 80.07733154 C72.00647564 70.57132685 71.99146976 61.06532652 71.98163509 51.55930519 C71.9764091 46.67178069 71.96931655 41.78427354 71.95800781 36.89675903 C71.94716892 32.18298547 71.94116829 27.46922863 71.93857002 22.75544357 C71.93671759 20.95405183 71.93310043 19.15266105 71.92771721 17.3512764 C71.92049351 14.83467862 71.91945689 12.31815061 71.91992188 9.80154419 C71.9163266 9.05132492 71.91273132 8.30110565 71.9090271 7.52815247 C71.9193951 2.36705086 71.9193951 2.36705086 73.03344727 0.13894653 C77.55410155 0.08956953 82.07459944 0.0532383 86.59545898 0.02908325 C88.13389825 0.01901536 89.67231834 0.00536007 91.21069336 -0.01193237 C93.41988859 -0.03614663 95.62883122 -0.04752838 97.83813477 -0.05636597 C98.52777313 -0.06668854 99.2174115 -0.07701111 99.927948 -0.08764648 C101.63145633 -0.08804825 103.33430669 0.01703628 105.03344727 0.13894653 C107.03344727 2.13894653 107.03344727 2.13894653 107.26671886 4.19386387 C107.25879975 5.04614535 107.25088064 5.89842684 107.24272156 6.77653503 C107.23639206 8.24255409 107.23639206 8.24255409 107.22993469 9.7381897 C107.21496445 10.81411377 107.1999942 11.89003784 107.18457031 12.99856567 C107.17671509 14.12866562 107.16885986 15.25876556 107.1607666 16.42311096 C107.13209559 20.17359759 107.08886457 23.92376341 107.04516602 27.67410278 C107.02154579 30.26959077 106.99867189 32.86508564 106.97651672 35.46058655 C106.92791893 40.9056216 106.87278198 46.3505292 106.81201172 51.79544067 C106.74172361 58.09834012 106.68192669 64.40126896 106.62815255 70.70432955 C106.57640545 76.75921577 106.51888694 82.81402738 106.45838356 88.86883354 C106.43288144 91.44975068 106.40859042 94.03068007 106.38550377 96.61161995 C106.35217807 100.21072849 106.31233091 103.80970343 106.27050781 107.40872192 C106.26161026 108.48667023 106.25271271 109.56461853 106.24354553 110.67523193 C106.23086639 111.64975815 106.21818726 112.62428436 106.2051239 113.62834167 C106.19154862 114.90619836 106.19154862 114.90619836 106.17769909 116.20987034 C106.03344727 118.13894653 106.03344727 118.13894653 105.03344727 119.13894653 C102.75396935 119.23915583 100.47137592 119.26975957 98.18969727 119.27175903 C97.50540649 119.27271576 96.82111572 119.27367249 96.11608887 119.2746582 C94.66682849 119.27533983 93.21756508 119.27348676 91.76831055 119.26931763 C89.54281799 119.26396905 87.31752726 119.26926313 85.09204102 119.27566528 C83.68709265 119.2750045 82.28214441 119.27372333 80.87719727 119.27175903 C79.59006836 119.2706311 78.30293945 119.26950317 76.97680664 119.26834106 C74.03344727 119.13894653 74.03344727 119.13894653 73.03344727 118.13894653 C72.79980846 116.29002707 72.62041092 114.43406622 72.47094727 112.57644653 C72.3871582 111.56453247 72.30336914 110.55261841 72.21704102 109.51004028 C72.15645508 108.72757935 72.09586914 107.94511841 72.03344727 107.13894653 C71.23422852 107.73062622 70.43500977 108.32230591 69.61157227 108.93191528 C56.32086983 118.569713 43.688875 123.65232657 27.03344727 122.13894653 C15.58535056 119.95894988 6.67918738 114.79109289 0.03344727 105.13894653 C-6.81911265 93.05680142 -6.253188 80.05059436 -6.19702148 66.60379028 C-6.1958278 64.7147576 -6.19537692 62.82572432 -6.19563293 60.93669128 C-6.19407639 56.99894438 -6.18584502 53.06128946 -6.17236328 49.12356567 C-6.15526917 44.06596156 -6.15155237 39.00845723 -6.15230846 33.9508276 C-6.15203739 30.06051168 -6.14656811 26.17021776 -6.13930702 22.27990913 C-6.13611838 20.41350025 -6.13415249 18.54708887 -6.13341331 16.68067741 C-6.13125776 14.08591268 -6.12253383 11.4912565 -6.11181641 8.89651489 C-6.11226959 8.12100784 -6.11272278 7.34550079 -6.1131897 6.54649353 C-6.07679906 0.55565729 -6.04493486 0.0298961 0 0 Z " fill="#2D4363" transform="translate(939.966552734375,441.8610534667969)"/>
<path d="M0 0 C1.8569751 -0.00472824 1.8569751 -0.00472824 3.75146484 -0.009552 C5.11295609 -0.00776222 6.47444701 -0.00571127 7.8359375 -0.00341797 C9.22216814 -0.00409106 10.60839867 -0.00506113 11.99462891 -0.00631714 C14.90333172 -0.00779387 17.81200387 -0.00564037 20.72070312 -0.00097656 C24.45690348 0.00472073 28.19303202 0.00144159 31.92922974 -0.00454903 C34.79273016 -0.00815532 37.65621343 -0.00701574 40.51971436 -0.00442123 C41.89768482 -0.00375215 43.27565682 -0.00457973 44.65362549 -0.00690079 C46.57637504 -0.00942839 48.49913002 -0.0048957 50.421875 0 C52.06615479 0.00119339 52.06615479 0.00119339 53.74365234 0.00241089 C56.2109375 0.12939453 56.2109375 0.12939453 57.2109375 1.12939453 C57.33425208 2.46885673 57.39037501 3.81459491 57.41867065 5.15942383 C57.4388324 6.0281311 57.45899414 6.89683838 57.47976685 7.79187012 C57.49659515 8.75274536 57.51342346 9.71362061 57.53076172 10.70361328 C57.55178955 11.71033081 57.57281738 12.71704834 57.59448242 13.75427246 C57.77826774 23.0995475 57.88376023 32.44610835 57.96662712 41.79277039 C58.02304243 48.06773707 58.10412963 54.34011644 58.24658203 60.61376953 C58.38385326 66.68418262 58.45561009 72.75225881 58.48328018 78.8241272 C58.50460601 81.12700464 58.54833488 83.42979889 58.6159935 85.73178101 C59.02626789 100.37738931 57.5704856 109.66100405 47.49710083 120.69702148 C46.94407413 121.27231598 46.39104744 121.84761047 45.82126236 122.44033813 C43.48059044 124.8954495 41.35787807 127.50447728 39.2109375 130.12939453 C36.001645 129.53049125 34.13178157 128.51935565 31.63671875 126.43408203 C30.97422119 125.88695557 30.31172363 125.3398291 29.62915039 124.77612305 C28.93426514 124.19145264 28.23937988 123.60678223 27.5234375 123.00439453 C26.07087663 121.80188985 24.61775695 120.60005984 23.1640625 119.39892578 C22.47248047 118.82480957 21.78089844 118.25069336 21.06835938 117.65917969 C19.00310951 115.958226 16.901681 114.31321389 14.7734375 112.69189453 C14.15870575 112.1936467 13.543974 111.69539886 12.91061401 111.18205261 C10.68481711 109.4897017 8.45485323 107.99659859 6.10623169 106.48872375 C-6.63752604 97.82756592 -6.63752604 97.82756592 -8.29766846 90.24984741 C-8.97721728 84.57288011 -8.73332419 78.93290906 -8.484375 73.23486328 C-8.45514321 71.1498549 -8.43336979 69.06472996 -8.41867065 66.97956848 C-8.35988354 61.53328746 -8.19822644 56.09485861 -8.01464844 50.65155029 C-7.84672902 45.08463446 -7.78276564 39.51654438 -7.70703125 33.94775391 C-7.5803427 25.84680641 -7.42090599 17.74785614 -7.17236328 9.6496582 C-7.14925079 8.79627869 -7.12613831 7.94289917 -7.10232544 7.06365967 C-6.87378632 0.2620924 -6.71933764 0.00487678 0 0 Z " fill="#F3B712" transform="translate(478.7890625,295.87060546875)"/>
<path d="M0 0 C1.8569751 -0.00472824 1.8569751 -0.00472824 3.75146484 -0.009552 C5.11295609 -0.00776222 6.47444701 -0.00571127 7.8359375 -0.00341797 C9.22216814 -0.00409106 10.60839867 -0.00506113 11.99462891 -0.00631714 C14.90333172 -0.00779387 17.81200387 -0.00564037 20.72070312 -0.00097656 C24.45690348 0.00472073 28.19303202 0.00144159 31.92922974 -0.00454903 C34.79273016 -0.00815532 37.65621343 -0.00701574 40.51971436 -0.00442123 C41.89768482 -0.00375215 43.27565682 -0.00457973 44.65362549 -0.00690079 C46.57637504 -0.00942839 48.49913002 -0.0048957 50.421875 0 C52.06615479 0.00119339 52.06615479 0.00119339 53.74365234 0.00241089 C56.2109375 0.12939453 56.2109375 0.12939453 57.2109375 1.12939453 C57.65188985 6.1618566 57.78266822 11.19450721 57.890625 16.24389648 C57.93688442 17.93670213 58.00466384 19.62907967 58.09570312 21.32006836 C58.66858595 32.15674558 57.86833504 39.25523319 50.53919983 47.57235718 C49.55333132 48.63621944 48.55667492 49.69021575 47.54803467 50.73251343 C45.83184314 52.52543886 44.3084736 54.44110515 42.78515625 56.39892578 C41.82425953 57.58100822 40.86203665 58.76201399 39.8984375 59.94189453 C39.363396 60.59875244 38.82835449 61.25561035 38.27709961 61.93237305 C31.33897735 70.44025176 24.34904867 78.90565238 17.35986328 87.37158203 C16.12347154 88.86937491 14.88738444 90.36741932 13.65161133 91.86572266 C12.45564596 93.31561156 11.25888813 94.76484721 10.0612793 96.21337891 C7.57072393 99.23206147 5.09344275 102.25530225 2.6953125 105.34814453 C1.99921875 106.24533203 1.303125 107.14251953 0.5859375 108.06689453 C-0.26871094 109.19417969 -0.26871094 109.19417969 -1.140625 110.34423828 C-2.90488343 112.25482147 -4.45794829 113.03764104 -6.7890625 114.12939453 C-6.81239244 99.41329888 -6.83004214 84.69720568 -6.84087467 69.98109531 C-6.84603743 63.14860479 -6.85307973 56.31612574 -6.86450195 49.48364258 C-6.87550957 42.89604149 -6.88133873 36.30844922 -6.88393974 29.72083855 C-6.8857945 27.20131174 -6.88941607 24.68178562 -6.89479256 22.16226387 C-6.90199926 18.64681688 -6.9030536 15.13141992 -6.90258789 11.6159668 C-6.90618317 10.56292862 -6.90977844 9.50989044 -6.91348267 8.42494202 C-6.91142067 6.99668091 -6.91142067 6.99668091 -6.90931702 5.53956604 C-6.91023881 4.70718698 -6.9111606 3.87480791 -6.91211033 3.01720524 C-6.64342475 -1.10499273 -3.42210353 0.0024837 0 0 Z " fill="#F2B613" transform="translate(399.7890625,348.87060546875)"/>
<path d="M0 0 C1.0374939 0.00303635 1.0374939 0.00303635 2.09594727 0.00613403 C2.80243408 0.00517731 3.5089209 0.00422058 4.23681641 0.00323486 C5.7331552 0.00255321 7.22949694 0.00440649 8.72583008 0.00857544 C11.02374884 0.01392396 13.32147213 0.00863003 15.61938477 0.00222778 C17.06990603 0.00288857 18.52042718 0.00416974 19.97094727 0.00613403 C20.66260986 0.0041098 21.35427246 0.00208557 22.06689453 0 C26.91849503 0.0239943 26.91849503 0.0239943 28.03344727 1.13894653 C28.13139796 2.65480765 28.15976541 4.17522206 28.16043091 5.69424438 C28.16325073 6.67862991 28.16607056 7.66301544 28.16897583 8.67723083 C28.1669516 9.76610092 28.16492737 10.85497101 28.1628418 11.97683716 C28.16459412 13.11654465 28.16634644 14.25625214 28.16815186 15.43049622 C28.17257312 19.21874489 28.16963141 23.00694734 28.16625977 26.79519653 C28.16693273 29.4145407 28.16790268 32.03388481 28.16915894 34.65322876 C28.17098047 40.15124009 28.16857476 45.64923801 28.16381836 51.14724731 C28.15837577 57.5121164 28.16013844 63.87695346 28.16564476 70.24182177 C28.17072155 76.35378986 28.17019437 82.46574369 28.16726303 88.57771301 C28.16659349 91.18376164 28.16742313 93.78981108 28.16974258 96.39585876 C28.17226749 100.03094686 28.1684308 103.66597249 28.1628418 107.30105591 C28.16486603 108.38992599 28.16689026 109.47879608 28.16897583 110.60066223 C28.16615601 111.58504776 28.16333618 112.56943329 28.16043091 113.58364868 C28.16005388 114.4442263 28.15967686 115.30480392 28.15928841 116.19145966 C28.03344727 118.13894653 28.03344727 118.13894653 27.03344727 119.13894653 C24.66946258 119.23972773 22.33533415 119.27867869 19.97094727 119.27175903 C19.26446045 119.27271576 18.55797363 119.27367249 17.83007812 119.2746582 C16.33373933 119.27533986 14.8373976 119.27348658 13.34106445 119.26931763 C11.04314569 119.26396911 8.7454224 119.26926304 6.44750977 119.27566528 C4.9969885 119.2750045 3.54646735 119.27372333 2.09594727 119.27175903 C1.05845337 119.27479538 1.05845337 119.27479538 0 119.27789307 C-4.8516005 119.25389877 -4.8516005 119.25389877 -5.96655273 118.13894653 C-6.06450343 116.62308542 -6.09287088 115.10267101 -6.09353638 113.58364868 C-6.0963562 112.59926315 -6.09917603 111.61487762 -6.1020813 110.60066223 C-6.10005707 109.51179214 -6.09803284 108.42292206 -6.09594727 107.30105591 C-6.09769958 106.16134842 -6.0994519 105.02164093 -6.10125732 103.84739685 C-6.10567859 100.05914817 -6.10273688 96.27094573 -6.09936523 92.48269653 C-6.10003819 89.86335237 -6.10100815 87.24400826 -6.1022644 84.62466431 C-6.10408593 79.12665297 -6.10168023 73.62865505 -6.09692383 68.13064575 C-6.09148124 61.76577667 -6.0932439 55.40093961 -6.09875023 49.0360713 C-6.10382702 42.92410321 -6.10329983 36.81214937 -6.1003685 30.70018005 C-6.09969896 28.09413142 -6.1005286 25.48808198 -6.10284805 22.8820343 C-6.10537295 19.2469462 -6.10153627 15.61192057 -6.09594727 11.97683716 C-6.0979715 10.88796707 -6.09999573 9.79909698 -6.1020813 8.67723083 C-6.09926147 7.69284531 -6.09644165 6.70845978 -6.09353638 5.69424438 C-6.09315935 4.83366676 -6.09278233 3.97308914 -6.09239388 3.08643341 C-5.83757324 -0.85710875 -3.3706515 0.01667005 0 0 Z " fill="#2D4362" transform="translate(1071.966552734375,441.8610534667969)"/>
<path d="M0 0 C1.19463867 -0.00630432 2.38927734 -0.01260864 3.62011719 -0.019104 C4.91594727 -0.01505554 6.21177734 -0.01100708 7.546875 -0.00683594 C8.88444082 -0.00818272 10.22200617 -0.01012336 11.55957031 -0.01263428 C14.36397966 -0.01558494 17.16826169 -0.01128987 19.97265625 -0.00195312 C23.57092422 0.00944153 27.16889386 0.00288172 30.76715088 -0.00909805 C33.52948258 -0.0163183 36.29174333 -0.014028 39.05407715 -0.00884247 C41.02726433 -0.00685568 43.00045426 -0.01293935 44.97363281 -0.019104 C46.16827148 -0.01279968 47.36291016 -0.00649536 48.59375 0 C50.17687988 0.00238678 50.17687988 0.00238678 51.79199219 0.00482178 C54.296875 0.25878906 54.296875 0.25878906 56.296875 2.25878906 C56.53738403 4.58731079 56.53738403 4.58731079 56.52392578 7.53466797 C56.52377472 8.63565826 56.52362366 9.73664856 56.52346802 10.8710022 C56.51314545 12.06373749 56.50282288 13.25647278 56.4921875 14.48535156 C56.4893576 15.70330414 56.48652771 16.92125671 56.48361206 18.17611694 C56.47238756 22.07877289 56.44727872 25.98120209 56.421875 29.88378906 C56.41184814 32.52441076 56.40272178 35.16503603 56.39453125 37.80566406 C56.37244081 44.29011686 56.33894092 50.77443677 56.296875 57.25878906 C53.15226559 56.03344081 50.42229232 54.81963095 47.66015625 52.87597656 C38.42812922 46.10487801 38.42812922 46.10487801 27.515625 44.48144531 C22.96811534 46.07467493 19.77324988 49.00875578 16.296875 52.25878906 C15.43191406 53.04253906 14.56695312 53.82628906 13.67578125 54.63378906 C11.82920271 56.31011568 9.98810025 57.99249307 8.15234375 59.68066406 C-4.67130682 71.25878906 -4.67130682 71.25878906 -7.703125 71.25878906 C-7.7494065 62.29686511 -7.7849728 53.33498212 -7.80674934 44.37296486 C-7.81719946 40.21181654 -7.83138092 36.0507498 -7.85400391 31.88964844 C-7.87568871 27.87612478 -7.88768437 23.86267973 -7.89287949 19.84910202 C-7.89658311 18.3156447 -7.90381511 16.78219182 -7.91458511 15.24876785 C-7.92904229 13.10569105 -7.9311054 10.96294171 -7.93017578 8.81982422 C-7.934617 7.59848785 -7.93905823 6.37715149 -7.94363403 5.11880493 C-7.4895383 -0.28107963 -4.69535757 0.00707888 0 0 Z " fill="#F3B610" transform="translate(319.703125,402.7412109375)"/>
<path d="M0 0 C0.98548828 -0.02900391 1.97097656 -0.05800781 2.98632812 -0.08789062 C9.04401779 -0.14077845 12.60001935 0.22547178 17.1875 4.3125 C18.9357484 7.8089968 18.41458836 11.77298055 18.4375 15.625 C18.458125 16.48029297 18.47875 17.33558594 18.5 18.21679688 C18.52980565 23.026683 18.45790844 26.48428825 15.1875 30.3125 C10.1988735 31.9753755 5.03646004 31.62278878 -0.1875 31.6875 C-1.32445312 31.72488281 -2.46140625 31.76226562 -3.6328125 31.80078125 C-11.82722563 31.88734195 -11.82722563 31.88734195 -16.06640625 29.4140625 C-18.55332954 24.9965746 -18.50873327 21.30038948 -18.375 16.3125 C-18.38595703 15.42304688 -18.39691406 14.53359375 -18.40820312 13.6171875 C-18.36091998 9.39322683 -18.18209232 6.92510123 -15.96484375 3.25 C-11.44172242 -0.82163009 -5.75444388 0.05579616 0 0 Z " fill="#324766" transform="translate(1082.8125,392.6875)"/>
<path d="M0 0 C8.91 0 17.82 0 27 0 C27.02311684 21.75682316 27.04097812 43.51364338 27.05181217 65.27047634 C27.05697559 75.37180943 27.06401915 85.47313477 27.07543945 95.57446289 C27.0853849 104.37544464 27.09185309 113.17642078 27.09408849 121.97740799 C27.09539584 126.64046267 27.09848318 131.30350128 27.10573006 135.96655083 C27.11248809 140.35032366 27.11461741 144.73407371 27.11310768 149.11785126 C27.11338411 150.73160234 27.11539052 152.34535413 27.11920547 153.95910072 C27.12413934 156.1526889 27.12299944 158.3461897 27.12025452 160.53977966 C27.12117631 161.7703733 27.1220981 163.00096693 27.12304783 164.26885128 C27 167 27 167 26 168 C23.63601532 168.1007812 21.30188689 168.13973215 18.9375 168.1328125 C18.23101318 168.13376923 17.52452637 168.13472595 16.79663086 168.13571167 C15.30029207 168.13639333 13.80395033 168.13454005 12.30761719 168.13037109 C10.00969843 168.12502257 7.71197514 168.13031651 5.4140625 168.13671875 C3.96354123 168.13605797 2.51302009 168.1347768 1.0625 168.1328125 C0.0250061 168.13584885 0.0250061 168.13584885 -1.03344727 168.13894653 C-5.88504776 168.11495224 -5.88504776 168.11495224 -7 167 C-7.12337174 165.15968011 -7.17791308 163.31470589 -7.20532227 161.47045898 C-7.22526749 160.28931015 -7.24521271 159.10816132 -7.26576233 157.89122009 C-7.29083107 155.96313255 -7.29083107 155.96313255 -7.31640625 153.99609375 C-7.33718735 152.68794205 -7.35796844 151.37979034 -7.37937927 150.03199768 C-7.434663 146.54844553 -7.48404431 143.0648334 -7.53222656 139.58117676 C-7.58239574 136.0286727 -7.63810567 132.4762561 -7.69335938 128.92382812 C-7.80101791 121.94929454 -7.90244567 114.97468202 -8 108 C-7.34 108 -6.68 108 -6 108 C-6 127.14 -6 146.28 -6 166 C4.23 166 14.46 166 25 166 C24.99548828 161.21701416 24.99097656 156.43402832 24.98632812 151.50610352 C24.98114804 135.33646293 25.07095064 119.16846681 25.20192909 102.99935985 C25.23089665 99.388054 25.25835914 95.77673665 25.28601074 92.16542053 C25.3381195 85.3878952 25.39149721 78.61038053 25.4453826 71.83286911 C25.50686933 64.09102567 25.56686261 56.34917084 25.62675762 48.60731494 C25.7495614 32.73819705 25.87434919 16.86909564 26 1 C17.42 1 8.84 1 0 1 C0 0.67 0 0.34 0 0 Z " fill="#778599" transform="translate(888,442)"/>
<path d="M0 0 C1.5921785 0.00666183 1.5921785 0.00666183 3.21652222 0.01345825 C4.41761627 0.01360931 5.61871033 0.01376038 6.85620117 0.01391602 C8.15830536 0.02423859 9.46040955 0.03456116 10.80197144 0.04519653 C12.14432566 0.04892627 13.48668261 0.05177343 14.82904053 0.05377197 C18.36367294 0.06141159 21.89814122 0.08106273 25.43270874 0.10317993 C29.03884663 0.12363138 32.64501103 0.13277218 36.25119019 0.14285278 C43.32808029 0.16430843 50.4048589 0.19844824 57.48165894 0.24050903 C57.48165894 0.57050903 57.48165894 0.90050903 57.48165894 1.24050903 C37.68165894 1.57050903 17.88165894 1.90050903 -2.51834106 2.24050903 C-2.51834106 24.02050903 -2.51834106 45.80050903 -2.51834106 68.24050903 C-1.85834106 68.57050903 -1.19834106 68.90050903 -0.51834106 69.24050903 C-2.49834106 70.23050903 -2.49834106 70.23050903 -4.51834106 71.24050903 C-4.56462256 62.27858508 -4.60018887 53.31670209 -4.62196541 44.35468483 C-4.63241552 40.19353651 -4.64659698 36.03246977 -4.66921997 31.87136841 C-4.69090477 27.85784475 -4.70290044 23.8443997 -4.70809555 19.83082199 C-4.71179918 18.29736467 -4.71903118 16.76391179 -4.72980118 15.23048782 C-4.74425835 13.08741102 -4.74632147 10.94466168 -4.74539185 8.80154419 C-4.74983307 7.58020782 -4.75427429 6.35887146 -4.7588501 5.1005249 C-4.44719147 1.39443287 -3.75738907 0.35884179 0 0 Z " fill="#F6DD8D" transform="translate(316.5183410644531,402.7594909667969)"/>
<path d="M0 0 C0 30.03 0 60.06 0 91 C-9 91 -9 91 -13 89 C-11.56260487 88.97287934 -10.12506137 88.95354933 -8.6875 88.9375 C-7.48673828 88.92009766 -7.48673828 88.92009766 -6.26171875 88.90234375 C-4 89 -4 89 -1 90 C-1.33 61.62 -1.66 33.24 -2 4 C-4.31 6.64 -6.62 9.28 -9 12 C-9.99 12.33 -10.98 12.66 -12 13 C-10.49017269 9.57143381 -8.48286031 7.04321784 -6 4.25 C-5.29875 3.45078125 -4.5975 2.6515625 -3.875 1.828125 C-2 0 -2 0 0 0 Z " fill="#1272EC" transform="translate(596,432)"/>
<path d="M0 0 C0.37892956 11.38235968 -0.8004758 22.51060713 -2 33.8125 C-2.19331328 35.68027603 -2.38602601 37.54811432 -2.578125 39.41601562 C-3.0451711 43.94475708 -3.52030732 48.47258136 -4 53 C-4.33 53 -4.66 53 -5 53 C-5.495 45.575 -5.495 45.575 -6 38 C-5.34 38 -4.68 38 -4 38 C-4.01160156 36.81921875 -4.02320313 35.6384375 -4.03515625 34.421875 C-4.04453752 32.86458492 -4.05363736 31.30729312 -4.0625 29.75 C-4.07087891 28.97269531 -4.07925781 28.19539063 -4.08789062 27.39453125 C-4.09111328 26.64042969 -4.09433594 25.88632812 -4.09765625 25.109375 C-4.10289307 24.41811523 -4.10812988 23.72685547 -4.11352539 23.01464844 C-3.99401028 20.89370506 -3.5412559 19.04977518 -3 17 C-2.7801777 14.75292759 -2.59516013 12.50228762 -2.4375 10.25 C-2.35371094 9.07953125 -2.26992188 7.9090625 -2.18359375 6.703125 C-2.12300781 5.81109375 -2.06242188 4.9190625 -2 4 C-2.75667969 4.15339844 -3.51335938 4.30679687 -4.29296875 4.46484375 C-7.18679479 5.03692769 -10.08864902 5.52605914 -13 6 C-9.40464172 2.97989905 -4.81374718 0 0 0 Z " fill="#8BDD9C" transform="translate(622,334)"/>
<path d="M0 0 C1.13734589 -0.00250763 1.13734589 -0.00250763 2.29766846 -0.00506592 C31.8326093 -0.008974 31.8326093 -0.008974 40.75 5.25 C37.9375 5.875 37.9375 5.875 34.75 6.25 C33.76 5.59 32.77 4.93 31.75 4.25 C29.24393828 3.75186258 26.84636627 3.39358045 24.3125 3.125 C23.13337036 2.99762451 23.13337036 2.99762451 21.93041992 2.86767578 C6.95523107 1.50392519 -8.22932438 2.0912578 -23.25 2.25 C-23.25 1.92 -23.25 1.59 -23.25 1.25 C-15.50427382 0.00599699 -7.82004071 0.00903031 0 0 Z " fill="#96CBF4" transform="translate(565.25,529.75)"/>
<path d="M0 0 C0.33 0 0.66 0 1 0 C1.33505359 12.11777167 0.30816011 23.9604041 -1 36 C-1.33 36 -1.66 36 -2 36 C-2.33 31.05 -2.66 26.1 -3 21 C-2.34 21 -1.68 21 -1 21 C-1.01160156 19.81921875 -1.02320313 18.6384375 -1.03515625 17.421875 C-1.04453752 15.86458492 -1.05363736 14.30729312 -1.0625 12.75 C-1.07087891 11.97269531 -1.07925781 11.19539063 -1.08789062 10.39453125 C-1.09111328 9.64042969 -1.09433594 8.88632812 -1.09765625 8.109375 C-1.10289307 7.41811523 -1.10812988 6.72685547 -1.11352539 6.01464844 C-0.99437971 3.90026102 -0.57618237 2.03358485 0 0 Z " fill="#64CB7A" transform="translate(619,351)"/>
<path d="M0 0 C0 0.33 0 0.66 0 1 C-12.54 0.67 -25.08 0.34 -38 0 C-38 -0.33 -38 -0.66 -38 -1 C-34.14593663 -1.16911283 -30.29173507 -1.33485038 -26.4375 -1.5 C-25.35146484 -1.54769531 -24.26542969 -1.59539063 -23.14648438 -1.64453125 C-7.12436581 -2.32632353 -7.12436581 -2.32632353 0 0 Z " fill="#ACD5F5" transform="translate(577,519)"/>
<path d="M0 0 C4.49797113 1.68673918 8.72886302 3.81673892 13 6 C11.35 7.32 9.7 8.64 8 10 C6.66070495 8.71451591 5.32871357 7.42141845 4 6.125 C2.88625 5.04605469 2.88625 5.04605469 1.75 3.9453125 C0 2 0 2 0 0 Z " fill="#5D96DF" transform="translate(246,555)"/>
<path d="M0 0 C0.33 1.32 0.66 2.64 1 4 C0.4225 4.350625 -0.155 4.70125 -0.75 5.0625 C-3.22188463 7.19106732 -4.40029124 9.42729069 -5.91796875 12.28125 C-7.49508605 14.78641827 -9.59304131 16.32850091 -12 18 C-12 13.64481826 -9.3175911 11.54081823 -6.5625 8.4375 C-2.90599705 4.48153588 -2.90599705 4.48153588 0 0 Z " fill="#59A3F4" transform="translate(559,474)"/>
<path d="M0 0 C0.66 0.33 1.32 0.66 2 1 C0.68 2.32 -0.64 3.64 -2 5 C-1.01 5.66 -0.02 6.32 1 7 C-0.26691507 7.67408308 -1.53870749 8.33900497 -2.8125 9 C-3.52019531 9.37125 -4.22789062 9.7425 -4.95703125 10.125 C-7 11 -7 11 -10 11 C-8.55218207 7.55571735 -6.72305391 5.63869038 -3.875 3.25 C-3.15054687 2.63640625 -2.42609375 2.0228125 -1.6796875 1.390625 C-0.84824219 0.70226562 -0.84824219 0.70226562 0 0 Z " fill="#82C79C" transform="translate(266,530)"/>
<path d="M0 0 C0.33 0.99 0.66 1.98 1 3 C-3.06724493 7.5632504 -5.7458909 9.99487532 -12 11 C-15.4375 10.625 -15.4375 10.625 -18 10 C-15.00093759 9.00031253 -12.00668718 8.24404538 -8.9375 7.5 C-7.2719596 7.07018312 -5.63183658 6.54394553 -4 6 C-2.90833725 4.06669397 -2.90833725 4.06669397 -2 2 C-1.34 1.34 -0.68 0.68 0 0 Z " fill="#72A6E2" transform="translate(414,535)"/>
<path d="M0 0 C2.64 0.33 5.28 0.66 8 1 C6.60667426 4.36720387 5.0210714 5.9859524 2 8 C2 6.35 2 4.7 2 3 C1.34 2.67 0.68 2.34 0 2 C0 1.34 0 0.68 0 0 Z " fill="#62B0F4" transform="translate(606,535)"/>
<path d="M0 0 C3.63 0.33 7.26 0.66 11 1 C11 1.33 11 1.66 11 2 C8.62561751 2.3383344 6.25065041 2.67079002 3.875 3 C3.20984375 3.09539063 2.5446875 3.19078125 1.859375 3.2890625 C-2.12628981 3.83611453 -5.97859938 4.10022182 -10 4 C-6.5980513 1.90649311 -3.94727588 1.82057837 0 2 C0 1.34 0 0.68 0 0 Z " fill="#7FB6EE" transform="translate(526,518)"/>
<path d="M0 0 C0.33 0.99 0.66 1.98 1 3 C-0.109375 4.7890625 -0.109375 4.7890625 -1.75 6.625 C-2.28109375 7.23601562 -2.8121875 7.84703125 -3.359375 8.4765625 C-5 10 -5 10 -8 11 C-6.63629701 8.00779732 -5.05091917 5.70973471 -2.875 3.25 C-2.33617187 2.63640625 -1.79734375 2.0228125 -1.2421875 1.390625 C-0.62730469 0.70226562 -0.62730469 0.70226562 0 0 Z " fill="#59A4F5" transform="translate(592,434)"/>
<path d="M0 0 C0.33 0 0.66 0 1 0 C1.11044961 6.73742646 0.70132913 13.29980211 0 20 C-0.33 20 -0.66 20 -1 20 C-1.33 15.05 -1.66 10.1 -2 5 C-1.34 5 -0.68 5 0 5 C0 3.35 0 1.7 0 0 Z " fill="#94E1A7" transform="translate(618,367)"/>
<path d="M0 0 C0.66 0 1.32 0 2 0 C2 5.61 2 11.22 2 17 C1.67 17 1.34 17 1 17 C0.93941406 16.09636719 0.87882813 15.19273437 0.81640625 14.26171875 C0.73261719 13.08222656 0.64882813 11.90273438 0.5625 10.6875 C0.48128906 9.51574219 0.40007813 8.34398437 0.31640625 7.13671875 C0.1132629 3.97409042 0.1132629 3.97409042 -1 1 C-0.67 0.67 -0.34 0.34 0 0 Z " fill="#0F74EC" transform="translate(594,432)"/>
<path d="M0 0 C0.88171875 0.13921875 1.7634375 0.2784375 2.671875 0.421875 C4.00992188 0.61523438 4.00992188 0.61523438 5.375 0.8125 C6.38820313 0.99039063 6.38820313 0.99039063 7.421875 1.171875 C7.421875 1.501875 7.421875 1.831875 7.421875 2.171875 C2.801875 2.831875 -1.818125 3.491875 -6.578125 4.171875 C-2.578125 0.171875 -2.578125 0.171875 0 0 Z " fill="#76AFEA" transform="translate(508.578125,520.828125)"/>
<path d="M0 0 C5.19209404 -0.21192221 9.126739 0.4087311 14 2 C14 2.33 14 2.66 14 3 C4.58997722 3.3690205 4.58997722 3.3690205 0 1 C0 0.67 0 0.34 0 0 Z " fill="#549FED" transform="translate(563,517)"/>
<path d="M0 0 C0.66 0.66 1.32 1.32 2 2 C0.625 3.5 0.625 3.5 -1 5 C-1.66 5 -2.32 5 -3 5 C-3.66 6.32 -4.32 7.64 -5 9 C-5.66 8.67 -6.32 8.34 -7 8 C-4.69 5.36 -2.38 2.72 0 0 Z " fill="#4E93DF" transform="translate(463,478)"/>
<path d="M0 0 C0.33 0.66 0.66 1.32 1 2 C-0.3125 4.625 -0.3125 4.625 -2 7 C-2.66 7 -3.32 7 -4 7 C-4.33 7.99 -4.66 8.98 -5 10 C-5.66 9.67 -6.32 9.34 -7 9 C-4.69 6.03 -2.38 3.06 0 0 Z " fill="#5CB87B" transform="translate(401,474)"/>
<path d="M0 0 C0.66 0.33 1.32 0.66 2 1 C1.01 1.33 0.02 1.66 -1 2 C-1.73323796 4.01508358 -1.73323796 4.01508358 -2 6 C-3.32 5.34 -4.64 4.68 -6 4 C-3.94766315 1.7522025 -2.99332739 0.9977758 0 0 Z " fill="#70CF86" transform="translate(554,364)"/>
<path d="M0 0 C0.66 0.33 1.32 0.66 2 1 C-0.97 2.65 -3.94 4.3 -7 6 C-7.66 5.34 -8.32 4.68 -9 4 C-7.54618103 3.30300448 -6.08677047 2.61766134 -4.625 1.9375 C-3.40683594 1.36322266 -3.40683594 1.36322266 -2.1640625 0.77734375 C-1.44992187 0.52082031 -0.73578125 0.26429688 0 0 Z " fill="#7CD18D" transform="translate(565,359)"/>
<path d="M0 0 C0.66 0.66 1.32 1.32 2 2 C1.34 2 0.68 2 0 2 C-0.2475 2.639375 -0.495 3.27875 -0.75 3.9375 C-2 6 -2 6 -6 7 C-4.02 4.69 -2.04 2.38 0 0 Z " fill="#5A9CE3" transform="translate(471,469)"/>
</svg>
